<svg id="leftbar_course_n" xmlns="http://www.w3.org/2000/svg" width="24" height="24" viewBox="0 0 24 24">
  <defs>
    <style>
      .cls-1, .cls-2 {
        fill: #fff;
      }

      .cls-1 {
        opacity: 0;
      }
    </style>
  </defs>
  <rect id="矩形_910" data-name="矩形 910" class="cls-1" width="24" height="24" rx="12"/>
  <path id="路径_12" data-name="路径 12" class="cls-2" d="M18.936,0a1,1,0,0,0-1,.995V19.31a1,1,0,0,0,1,.995h.37a1,1,0,0,0,1-.995V.995a1,1,0,0,0-1-.995h-.37ZM7.445,10.152,5.245,8.2a.511.511,0,0,0-.675,0l-2.2,1.957v-6.6a.509.509,0,0,1,.508-.508H6.938a.509.509,0,0,1,.508.508ZM.993,0A.993.993,0,0,0,0,.995V19.31a1,1,0,0,0,.993.995h14.6a.993.993,0,0,0,.993-.995V.995A.993.993,0,0,0,15.589,0Z" transform="translate(1.961 1.756)"/>
</svg>
