<svg xmlns="http://www.w3.org/2000/svg" width="24" height="24" viewBox="0 0 24 24">
  <defs>
    <style>
      .cls-1 {
        fill: #a9a9a9;
        opacity: 0;
      }

      .cls-2 {
        fill: #fff;
      }

      .cls-3, .cls-4 {
        stroke: none;
      }

      .cls-4 {
        fill: #fff;
      }
    </style>
  </defs>
  <g id="leftbar_recordvideo_s" transform="translate(-32 -85)">
    <rect id="矩形_910" data-name="矩形 910" class="cls-1" width="24" height="24" rx="12" transform="translate(32 85)"/>
    <g id="组_2949" data-name="组 2949" transform="translate(31.768 88.556)">
      <g id="减去_68" data-name="减去 68" class="cls-2" transform="translate(-19135 -23767)">
        <path class="cls-3" d="M 19152.232421875 23782.9453125 L 19136.234375 23782.9453125 C 19135.95703125 23782.9453125 19135.732421875 23782.720703125 19135.732421875 23782.443359375 L 19135.732421875 23768.4453125 C 19135.732421875 23768.16796875 19135.95703125 23767.943359375 19136.234375 23767.943359375 L 19152.232421875 23767.943359375 C 19152.509765625 23767.943359375 19152.734375 23768.16796875 19152.734375 23768.4453125 L 19152.734375 23773.728515625 L 19152.734375 23774.81640625 L 19153.560546875 23774.107421875 L 19156.908203125 23771.236328125 C 19157.001953125 23771.15625 19157.107421875 23771.115234375 19157.224609375 23771.115234375 C 19157.427734375 23771.115234375 19157.73046875 23771.275390625 19157.73046875 23771.62109375 L 19157.73046875 23779.267578125 C 19157.73046875 23779.61328125 19157.427734375 23779.7734375 19157.224609375 23779.7734375 C 19157.107421875 23779.7734375 19157.001953125 23779.732421875 19156.908203125 23779.65234375 L 19153.560546875 23776.78125 L 19152.734375 23776.072265625 L 19152.734375 23777.16015625 L 19152.734375 23782.443359375 C 19152.734375 23782.720703125 19152.509765625 23782.9453125 19152.232421875 23782.9453125 Z M 19140.234375 23768.943359375 C 19138.85546875 23768.943359375 19137.734375 23770.064453125 19137.734375 23771.443359375 C 19137.734375 23772.8203125 19138.85546875 23773.94140625 19140.234375 23773.94140625 C 19141.61328125 23773.94140625 19142.734375 23772.8203125 19142.734375 23771.443359375 C 19142.734375 23770.064453125 19141.61328125 23768.943359375 19140.234375 23768.943359375 Z"/>
        <path class="cls-4" d="M 19152.232421875 23782.4453125 L 19152.234375 23782.443359375 L 19152.234375 23777.16015625 L 19152.234375 23775.904296875 L 19152.234375 23773.728515625 L 19152.232421875 23768.443359375 L 19140.328125 23768.4453125 C 19141.939453125 23768.494140625 19143.234375 23769.8203125 19143.234375 23771.443359375 C 19143.234375 23773.095703125 19141.888671875 23774.44140625 19140.234375 23774.44140625 C 19138.580078125 23774.44140625 19137.234375 23773.095703125 19137.234375 23771.443359375 C 19137.234375 23769.8203125 19138.529296875 23768.494140625 19140.140625 23768.4453125 L 19136.232421875 23768.4453125 L 19136.234375 23782.4453125 L 19152.232421875 23782.4453125 M 19157.228515625 23779.267578125 C 19157.228515625 23779.267578125 19157.23046875 23779.267578125 19157.23046875 23779.267578125 L 19157.23046875 23771.62109375 C 19157.23046875 23771.62109375 19157.228515625 23771.62109375 19157.228515625 23771.62109375 L 19153.884765625 23774.48828125 L 19152.76953125 23775.443359375 L 19153.884765625 23776.400390625 L 19157.228515625 23779.267578125 M 19152.232421875 23783.4453125 L 19136.234375 23783.4453125 C 19135.681640625 23783.4453125 19135.232421875 23782.99609375 19135.232421875 23782.443359375 L 19135.232421875 23768.4453125 C 19135.232421875 23767.892578125 19135.681640625 23767.443359375 19136.234375 23767.443359375 L 19152.232421875 23767.443359375 C 19152.78515625 23767.443359375 19153.234375 23767.892578125 19153.234375 23768.4453125 L 19153.234375 23773.728515625 L 19156.58203125 23770.857421875 C 19156.765625 23770.69921875 19156.98828125 23770.615234375 19157.224609375 23770.615234375 C 19157.70703125 23770.615234375 19158.23046875 23771 19158.23046875 23771.62109375 L 19158.23046875 23779.267578125 C 19158.23046875 23779.888671875 19157.70703125 23780.2734375 19157.224609375 23780.2734375 C 19156.98828125 23780.2734375 19156.765625 23780.189453125 19156.58203125 23780.03125 L 19153.234375 23777.16015625 L 19153.234375 23782.443359375 C 19153.234375 23782.99609375 19152.78515625 23783.4453125 19152.232421875 23783.4453125 Z M 19140.234375 23769.443359375 C 19139.130859375 23769.443359375 19138.234375 23770.33984375 19138.234375 23771.443359375 C 19138.234375 23772.544921875 19139.130859375 23773.44140625 19140.234375 23773.44140625 C 19141.337890625 23773.44140625 19142.234375 23772.544921875 19142.234375 23771.443359375 C 19142.234375 23770.33984375 19141.337890625 23769.443359375 19140.234375 23769.443359375 Z"/>
      </g>
    </g>
  </g>
</svg>
