<svg id="leftbar_recovery_s" xmlns="http://www.w3.org/2000/svg" width="24" height="24" viewBox="0 0 24 24">
  <defs>
    <style>
      .cls-1 {
        fill: #5592fe;
        opacity: 0;
      }

      .cls-2 {
        fill: rgba(255,255,255,0);
      }

      .cls-3 {
        fill: #fff;
      }
    </style>
  </defs>
  <rect id="矩形_910" data-name="矩形 910" class="cls-1" width="24" height="24" rx="12"/>
  <g id="组_1825" data-name="组 1825" transform="translate(0.517 1.162)">
    <rect id="矩形_649" data-name="矩形 649" class="cls-2" width="21" height="22" transform="translate(0.482 -0.162)"/>
    <g id="组_1825-2" data-name="组 1825" transform="translate(1.781 0.019)">
      <path id="联合_2" data-name="联合 2" class="cls-3" d="M1.594,21.711a.4.4,0,0,1-.4-.4V6.636a.4.4,0,0,1,.4-.4H17.4a.4.4,0,0,1,.4.4V21.31a.4.4,0,0,1-.4.4ZM5.3,14.135l-1.843,3.2.992,1.73h4v-1.73H5.423L6.8,14.943l-.175-1.412Zm4.209,4.06,1.084.823h3.583l1.1-1.707-2.011-3.5-1.492.864,1.491,2.632H10.54Zm1.3-5.317,1.306.553.139-1.452-1.835-3.2-1.987,0-2,3.482,1.49.863,1.514-2.633ZM.4,5.132a.4.4,0,0,1-.4-.4v-1.4a.4.4,0,0,1,.4-.4H5.845V1a1,1,0,0,1,1-1h5.306a1,1,0,0,1,1,1V2.933H18.6a.4.4,0,0,1,.4.4v1.4a.4.4,0,0,1-.4.4Z"/>
    </g>
  </g>
</svg>
