<svg xmlns="http://www.w3.org/2000/svg" width="40" height="40" viewBox="0 0 40 40">
  <defs>
    <style>
      .cls-1 {
        fill: #fff;
      }

      .cls-2, .cls-3 {
        fill: #222;
      }

      .cls-2 {
        opacity: 0;
      }
    </style>
  </defs>
  <g id="ic_praise_n" transform="translate(-489 -237)">
    <path id="路径_33309" data-name="路径 33309" class="cls-1" d="M20,0A20,20,0,1,1,0,20,20,20,0,0,1,20,0Z" transform="translate(489 237)"/>
    <g id="组_5375" data-name="组 5375" transform="translate(251 -1147)">
      <rect id="矩形_2156" data-name="矩形 2156" class="cls-2" width="16" height="16" transform="translate(250 1396)"/>
      <path id="减去_79" data-name="减去 79" class="cls-3" d="M19337.514-8246.956h-2.572a14,14,0,0,1-2.807-.325c-.709-.163-1.178-.272-1.494-.347v-9.814a3.859,3.859,0,0,0,1.471-3.158,1.418,1.418,0,0,1,1.408-1.4,2.131,2.131,0,0,1,1.564.953,3.727,3.727,0,0,1,.75,2.216,7.237,7.237,0,0,1-.113,1.544l1.07.026a18.3,18.3,0,0,1,2.916.178,1.753,1.753,0,0,1,1.336,1.616,16.271,16.271,0,0,1-1.85,7.6A1.738,1.738,0,0,1,19337.514-8246.956Zm-8.693,0h-1.412a1.413,1.413,0,0,1-1.408-1.412v-7.524a1.41,1.41,0,0,1,1.408-1.407h1.412a1.5,1.5,0,0,1,.82.278v9.787A1.4,1.4,0,0,1,19328.82-8246.956Z" transform="translate(-19075.639 9658.334)"/>
    </g>
  </g>
</svg>
