<svg xmlns="http://www.w3.org/2000/svg" width="34" height="34" viewBox="0 0 34 34">
  <defs>
    <style>
      .cls-1, .cls-2 {
        fill: #fff;
      }

      .cls-1 {
        opacity: 0;
      }
    </style>
  </defs>
  <g id="icon_fullscreen_b" transform="translate(269 10.999)">
    <g id="组_4260" data-name="组 4260" transform="translate(-269 -10.999)">
      <rect id="矩形_1194" data-name="矩形 1194" class="cls-1" width="34" height="34"/>
      <path id="路径_28668" data-name="路径 28668" class="cls-2" d="M137.428,150.56h-5.406a1.449,1.449,0,0,1-1.462-1.463v-5.369a.355.355,0,0,1,.349-.349H133.1a.355.355,0,0,1,.349.349v3.624a.355.355,0,0,0,.349.349H137.4a.355.355,0,0,1,.349.349v2.134A.326.326,0,0,1,137.428,150.56Zm11.657,0h-5.258a.355.355,0,0,1-.349-.349v-2.134a.355.355,0,0,1,.349-.349h3.5a.355.355,0,0,0,.349-.349v-3.6a.355.355,0,0,1,.349-.349h2.16a.355.355,0,0,1,.349.349V149.1A1.43,1.43,0,0,1,149.085,150.56ZM150.2,137.7h-2.16a.355.355,0,0,1-.349-.349v-3.6a.355.355,0,0,0-.349-.349h-3.528a.355.355,0,0,1-.349-.349v-2.148a.355.355,0,0,1,.349-.349H149.1a1.449,1.449,0,0,1,1.462,1.463v5.329A.377.377,0,0,1,150.2,137.7Zm-17.1.04h-2.187a.355.355,0,0,1-.349-.349v-5.369a1.449,1.449,0,0,1,1.462-1.463h5.406a.355.355,0,0,1,.349.349v2.134a.355.355,0,0,1-.349.349h-3.622a.355.355,0,0,0-.349.349v3.611A.376.376,0,0,1,133.1,137.741Z" transform="translate(-123.561 -123.561)"/>
    </g>
  </g>
</svg>
